<?xml version="1.0" encoding="UTF-8"?>
<svg id="Layer_1" xmlns="http://www.w3.org/2000/svg" version="1.1" viewBox="0 0 218.21 88.45">
  <!-- Generator: Adobe Illustrator 30.3.0, SVG Export Plug-In . SVG Version: 2.1.3 Build 182)  -->
  <defs>
    <style>
      .st0 {
        fill: #878787;
      }
    </style>
  </defs>
  <g>
    <path class="st0" d="M95.48,33.98c0,1.04-1.25,1.6-2,.88-2.06-1.97-5.12-3.17-8.41-3.17-9.24,0-15.77,7.17-15.77,19.25s6.59,19.32,15.77,19.32c3.25,0,6.34-1.17,8.41-3.09.76-.7,1.99-.13,1.99.9v.09c0,.66.53,1.19,1.19,1.19h10.21c.66,0,1.19-.53,1.19-1.19v-34.51c0-.66-.53-1.19-1.19-1.19h-10.21c-.66,0-1.19.53-1.19,1.19v.32ZM88.89,59.93c-4.01,0-7.04-3.23-7.04-9.05s3.04-8.92,7.04-8.92,7.04,3.23,7.04,8.92-2.97,9.05-7.04,9.05Z"/>
    <path class="st0" d="M122.47,42.61c0-1.87,1.74-2.97,4.65-2.97,2.26,0,4.03,1.09,4.91,2.88.23.47.71.76,1.23.7l8.87-1.08c.77-.09,1.25-.88.98-1.61-2.07-5.52-8.57-8.71-16.44-8.71-9.82,0-16.35,4.46-16.54,11.5-.32,14.09,21.65,9.82,21.65,16.02,0,1.81-1.87,2.91-4.91,2.91-2.84,0-5.06-1.25-6.18-3.23-.24-.42-.69-.67-1.17-.62l-9.06.93c-.77.08-1.27.86-1,1.59,1.97,5.43,8.08,9.15,17.42,9.15,10.73,0,17.57-4.72,17.57-12.41,0-14.15-21.97-8.92-21.97-15.05Z"/>
    <path class="st0" d="M169.13,31.82c-3.63,0-6.52,1.24-8.41,2.93-.77.69-2,.16-2-.88v-.21c0-.66-.53-1.19-1.19-1.19h-10.15c-.66,0-1.19.53-1.19,1.19v46.53c0,.66.53,1.19,1.19,1.19h10.15c.66,0,1.19-.53,1.19-1.19v-12.41c0-1.05,1.25-1.57,2.02-.86,1.88,1.74,4.74,3.03,8.38,3.03,8.27,0,15.83-5.75,15.83-19.06s-7.56-19.06-15.83-19.06ZM165.32,59.86c-4.01,0-7.04-3.17-7.04-8.98s3.04-8.98,7.11-8.98,6.98,3.3,6.98,8.98-2.97,8.98-7.04,8.98Z"/>
    <path class="st0" d="M199.73,33.66h0c0-.66-.53-1.19-1.19-1.19h-10.15c-.66,0-1.19.53-1.19,1.19v34.57c0,.66.53,1.19,1.19,1.19h10.15c.66,0,1.19-.53,1.19-1.19v-15.35c0-7.68,3.79-10.15,9.58-9.49.67.08,1.27-.4,1.34-1.06l.92-9.23c.07-.68-.45-1.29-1.14-1.31-4.01-.14-6.88,1.1-8.68,2.73-.78.7-2.01.18-2.01-.86Z"/>
  </g>
  <path class="st0" d="M41.42,70.18c-14.23,0-22.51-10.06-21.05-26.82,1.46-16.66,11.74-27.03,25.76-27.03,8.38,0,15.11,3.68,18.48,10.87.54,1.16,1.83,1.75,3.15,1.43l6.37-1.55c1.88-.46,2.98-2.51,2.26-4.19-5.37-12.76-17.63-17.42-29.31-17.42C28.85,5.46,10.12,17.25,7.83,43.36s14.4,37.8,32.63,37.8c9.03,0,18.93-2.83,26.46-10.03,1.04-.99,1.32-2.51.67-3.66-.8-1.41-1.41-2.57-2.04-3.73-.81-1.49-2.8-1.81-4.27-.7-4.91,3.68-12.63,7.15-19.85,7.15Z"/>
  <path class="st0" d="M68.23,39.82c-.24-5.32-5.74-1.49-5.74-1.49l-.98.02c.09-.64.14-1.3.14-1.96,0-7.97-6.46-14.43-14.43-14.43s-14.43,6.46-14.43,14.43c0,.86.08,1.71.23,2.53h-.56s-2.09-1.18-2.09-1.18c0,0-2.15-1.02-3.46.42s-.78,7.35,5.38,10.04c0,0,.66,4.66-4.72,4.12-5.38-.54-3.05,2.87-.06,6.03,0,0,3.23,3.17,10.39,1.02,0,0,1.25.12-.9,1.61-2.15,1.49-3.11,2.75,2.27,3.23,5.38.48,18.34-2.93,22.22-15.35,0,0,6.99-3.7,6.75-9.02ZM53.16,30.49c1.51,0,2.74,1.23,2.74,2.74s-1.23,2.74-2.74,2.74-2.74-1.23-2.74-2.74,1.23-2.74,2.74-2.74ZM42.29,30.49c1.51,0,2.74,1.23,2.74,2.74s-1.23,2.74-2.74,2.74-2.74-1.23-2.74-2.74,1.23-2.74,2.74-2.74Z"/>
  <g>
    <path class="st0" d="M87.5,9.98h4.84c2.54,0,4.18,1.7,4.18,4.16,0,2.64-2.04,5.15-5.65,5.15h-2.51l-.91,5.24h-2.49l2.56-14.55ZM93.94,14.14c0-1.08-.73-1.79-2.22-1.79h-2.14l-.81,4.57h2.14c1.89,0,3.03-1.16,3.03-2.78Z"/>
    <path class="st0" d="M111.98,16.3c0,4.53-3.8,8.48-8.4,8.48-4.26,0-6.57-2.93-6.57-6.59,0-4.51,3.82-8.46,8.4-8.46,4.26,0,6.57,2.91,6.57,6.57ZM109.43,16.3c0-2.31-1.45-4.2-4.01-4.2-3.49,0-5.84,3.1-5.84,6.09,0,2.31,1.46,4.22,4.01,4.22,3.49,0,5.84-3.12,5.84-6.11Z"/>
    <path class="st0" d="M125.37,25.03l-2.45-10.91-6.34,10.91-3.1-15.05h2.79l1.5,8.48,4.78-8.48h2.2l1.68,8.48,4.53-8.48h2.78l-8.38,15.05Z"/>
    <path class="st0" d="M136.83,15.89h5.82l-.42,2.37h-5.82l-.69,3.91h6.44l-.42,2.37h-8.94l2.56-14.55h8.81l-.42,2.37h-6.32l-.62,3.53Z"/>
    <path class="st0" d="M146.72,9.98h4.72c2.56,0,4.16,1.66,4.16,4.03,0,2.51-1.91,4.51-4.11,4.82l2.68,5.69h-2.72l-2.49-5.49h-1.33l-.96,5.49h-2.49l2.56-14.55ZM153.02,14.02c0-1.1-.83-1.66-2.24-1.66h-1.97l-.77,4.32h1.97c1.79,0,3.01-1,3.01-2.66Z"/>
    <path class="st0" d="M160.29,15.89h5.82l-.42,2.37h-5.82l-.69,3.91h6.44l-.42,2.37h-8.94l2.56-14.55h8.81l-.42,2.37h-6.32l-.62,3.53Z"/>
    <path class="st0" d="M180.94,16.24c0,4.38-2.89,8.29-7.98,8.29h-5.32l2.56-14.55h4.7c3.82,0,6.05,2.83,6.05,6.26ZM178.34,16.24c0-2.2-1.37-3.89-3.82-3.89h-2.24l-1.73,9.81h2.24c3.62,0,5.55-2.89,5.55-5.92Z"/>
    <path class="st0" d="M190.44,9.98h4.61c2.47,0,4.09,1.41,4.09,3.8,0,2.08-1.79,3.12-2.08,3.2.27.1,1.75.77,1.75,2.85,0,2.58-2.2,4.7-5.28,4.7h-5.65l2.56-14.55ZM193.55,22.16c1.46,0,2.68-.83,2.68-2.35,0-1.08-.89-1.52-2.12-1.52h-2.66l-.67,3.87h2.76ZM194.01,15.93c1.48,0,2.56-.69,2.56-2.14,0-1-.81-1.43-1.91-1.43h-2.14l-.64,3.57h2.14Z"/>
    <path class="st0" d="M206.23,24.53h-2.49l1-5.74-3.41-8.81h2.62l2.39,6.48,4.66-6.48h2.76l-6.53,8.81-1,5.74Z"/>
  </g>
</svg>